<?xml version="1.0" encoding="UTF-8" standalone="no"?>
<!-- Created with Inkscape (http://www.inkscape.org/) -->

<svg
   width="131.2415mm"
   height="149.56644mm"
   viewBox="0 0 131.2415 149.56644"
   version="1.1"
   id="svg5"
   inkscape:version="1.2.2 (b0a8486, 2022-12-01)"
   sodipodi:docname="onion.svg"
   xmlns:inkscape="http://www.inkscape.org/namespaces/inkscape"
   xmlns:sodipodi="http://sodipodi.sourceforge.net/DTD/sodipodi-0.dtd"
   xmlns="http://www.w3.org/2000/svg"
   xmlns:svg="http://www.w3.org/2000/svg">
  <sodipodi:namedview
     id="namedview7"
     pagecolor="#ffffff"
     bordercolor="#666666"
     borderopacity="1.0"
     inkscape:pageshadow="2"
     inkscape:pageopacity="0.0"
     inkscape:pagecheckerboard="0"
     inkscape:document-units="mm"
     showgrid="true"
     inkscape:snap-bbox="true"
     inkscape:zoom="1.3975589"
     inkscape:cx="144.17997"
     inkscape:cy="231.47504"
     inkscape:window-width="2044"
     inkscape:window-height="1205"
     inkscape:window-x="0"
     inkscape:window-y="25"
     inkscape:window-maximized="0"
     inkscape:current-layer="layer1"
     lock-margins="true"
     fit-margin-top="10"
     fit-margin-left="10"
     fit-margin-right="10"
     fit-margin-bottom="10"
     inkscape:showpageshadow="2"
     inkscape:deskcolor="#d1d1d1">
    <inkscape:grid
       type="xygrid"
       id="grid5985"
       visible="false"
       originx="-39.379248"
       originy="-74.093823" />
  </sodipodi:namedview>
  <defs
     id="defs2" />
  <g
     inkscape:label="Layer 1"
     inkscape:groupmode="layer"
     id="layer1"
     transform="translate(-39.379249,-74.093821)">
    <path
       style="fill:none;stroke:#000000;stroke-width:0.8;stroke-linecap:butt;stroke-linejoin:miter;stroke-miterlimit:4;stroke-dasharray:none;stroke-opacity:1"
       d="m 105,84.203017 c 2.79923,19.671733 4.92733,29.484033 12.51379,43.386503 7.58646,13.90247 27.31878,21.94728 30.56607,38.0362 3.24729,16.08893 -10.06095,34.3155 -18.21624,40.83968 -8.15529,6.52418 -20.06154,6.52418 -24.86362,6.52418 -4.80208,0 -16.364583,0.66511 -24.86362,-5.85907 -8.499037,-6.52418 -21.46353,-25.41586 -18.21624,-41.50479 3.24729,-16.08892 22.97961,-24.13373 30.56607,-38.0362 7.58646,-13.90247 9.71456,-23.71477 12.51379,-43.386503"
       id="path4958"
       sodipodi:nodetypes="czzzzzzzc" />
    <path
       style="fill:none;stroke:#000000;stroke-width:3;stroke-linecap:butt;stroke-linejoin:miter;stroke-miterlimit:4;stroke-dasharray:none;stroke-opacity:1"
       d="m 105.0041,84.203017 c 2.17313,19.671733 3.82523,29.484033 9.71481,43.386503 5.88959,13.90247 21.20836,21.94728 23.72932,38.0362 2.52097,16.08893 -7.8106,34.3155 -14.14179,40.83968 -6.33118,6.52418 -15.57434,6.52418 -19.30234,6.52418 -3.72799,0 -12.704291,0.66511 -19.302337,-5.85907 -6.598047,-6.52418 -16.662755,-25.41586 -14.141791,-41.50479 2.520965,-16.08892 17.839732,-24.13373 23.729318,-38.0362 5.88959,-13.90247 7.54169,-23.71477 9.71481,-43.386503"
       id="path7549"
       sodipodi:nodetypes="czzzzzzzc" />
    <path
       style="fill:none;stroke:#000000;stroke-width:0.3;stroke-linecap:butt;stroke-linejoin:miter;stroke-miterlimit:4;stroke-dasharray:none;stroke-opacity:1"
       d="m 105.00345,84.203017 c 1.83332,19.671733 3.22708,29.484033 8.19572,43.386503 4.96863,13.90247 17.89201,21.94728 20.01877,38.0362 2.12676,16.08893 -6.58926,34.3155 -11.93044,40.83968 -5.34119,6.52418 -13.139,6.52418 -16.28405,6.52418 -3.14504,0 -10.717726,0.66511 -16.284039,-5.85907 -5.566312,-6.52418 -14.057206,-25.41586 -11.930444,-41.50479 2.126763,-16.08892 15.050139,-24.13373 20.018774,-38.0362 4.968629,-13.90247 6.362399,-23.71477 8.195709,-43.386503"
       id="path7551"
       sodipodi:nodetypes="czzzzzzzc" />
    <path
       style="fill:none;stroke:#000000;stroke-width:0.803482;stroke-linecap:butt;stroke-linejoin:miter;stroke-miterlimit:4;stroke-dasharray:none;stroke-opacity:1"
       d="m 105.00196,84.203017 c 1.4935,19.671733 2.62893,29.484033 6.67661,43.386503 4.04768,13.90247 14.57567,21.94728 16.30823,38.0362 1.73256,16.08893 -5.36793,34.3155 -9.7191,40.83968 -4.35118,6.52418 -10.70364,6.52418 -13.26574,6.52418 -2.56211,0 -8.731167,0.66511 -13.265745,-5.85907 -4.534579,-6.52418 -11.451657,-25.41586 -9.719097,-41.50479 1.732559,-16.08892 12.260546,-24.13373 16.308228,-38.0362 4.047684,-13.90247 5.183104,-23.71477 6.676614,-43.386503"
       id="path7553"
       sodipodi:nodetypes="czzzzzzzc" />
    <path
       style="fill:none;stroke:#000000;stroke-width:2;stroke-linecap:butt;stroke-linejoin:miter;stroke-miterlimit:4;stroke-dasharray:none;stroke-opacity:1"
       d="m 105.00231,84.203017 c 1.15369,19.671733 2.03078,29.484033 5.15751,43.386503 3.12673,13.90247 11.25933,21.94728 12.59768,38.0362 1.33836,16.08893 -4.14658,34.3155 -7.50775,40.83968 -3.36117,6.52418 -8.26828,6.52418 -10.24744,6.52418 -1.97916,0 -6.744596,0.66511 -10.24744,-5.85907 -3.502844,-6.52418 -8.846108,-25.41586 -7.50775,-41.50479 1.338357,-16.08892 9.470954,-24.13373 12.597683,-38.0362 3.126727,-13.90247 4.003817,-23.71477 5.157507,-43.386503"
       id="path7555"
       sodipodi:nodetypes="czzzzzzzc" />
    <path
       style="fill:none;stroke:#000000;stroke-width:0.452684;stroke-linecap:butt;stroke-linejoin:miter;stroke-miterlimit:4;stroke-dasharray:none;stroke-opacity:1"
       d="m 105.00091,84.203017 c 0.47407,19.671733 0.83448,29.484033 2.1193,43.386503 1.28483,13.90247 4.62665,21.94728 5.1766,38.0362 0.54995,16.08893 -1.7039,34.3155 -3.08506,40.83968 -1.38116,6.52418 -3.39757,6.52418 -4.21084,6.52418 -0.81327,0 -2.77147,0.66511 -4.21084,-5.85907 -1.439376,-6.52418 -3.635011,-25.41586 -3.085058,-41.50479 0.549953,-16.08892 3.891768,-24.13373 5.176598,-38.0362 1.28482,-13.90247 1.64523,-23.71477 2.1193,-43.386503"
       id="path7557"
       sodipodi:nodetypes="czzzzzzzc" />
    <path
       style="fill:none;stroke:#000000;stroke-width:3;stroke-linecap:butt;stroke-linejoin:miter;stroke-miterlimit:4;stroke-dasharray:none;stroke-opacity:1"
       d="m 105.00673,84.203017 c 3.53236,19.671733 6.21782,29.484033 15.79122,43.386503 9.5734,13.90247 34.47372,21.94728 38.5715,38.0362 4.09777,16.08893 -12.69597,34.3155 -22.98718,40.83968 -10.29121,6.52418 -25.31577,6.52418 -31.37554,6.52418 -6.059776,0 -20.65056,0.66511 -31.375543,-5.85907 -10.724983,-6.52418 -27.08495,-25.41586 -22.987176,-41.50479 4.097773,-16.08892 28.9981,-24.13373 38.571493,-38.0362 9.5734,-13.90247 12.258856,-23.71477 15.791226,-43.386503"
       id="path7616"
       sodipodi:nodetypes="czzzzzzzc" />
  </g>
</svg>
